<!DOCTYPE svg PUBLIC "-//W3C//DTD SVG 20010904//EN" "http://www.w3.org/TR/2001/REC-SVG-20010904/DTD/svg10.dtd">
<svg version="1.0" xmlns="http://www.w3.org/2000/svg" width="679px" height="250px" viewBox="0 0 6790 2500" preserveAspectRatio="xMidYMid meet">
<g id="layer101" fill="#ffffff" stroke="none">
 <path d="M1291 2470 c-53 -13 -99 -66 -112 -130 -28 -135 62 -239 186 -216 40 8 90 50 100 84 9 32 -22 29 -37 -4 -15 -32 -56 -54 -100 -54 -75 1 -118 54 -118 146 0 47 5 69 23 95 52 78 161 72 195 -11 21 -50 48 -55 38 -8 -8 42 -51 86 -95 98 -20 5 -38 9 -41 9 -3 -1 -20 -5 -39 -9z"/>
 <path d="M2343 2470 c-50 -12 -79 -35 -102 -83 -40 -82 -16 -192 52 -241 40 -29 134 -29 173 0 52 39 68 70 72 142 2 55 -1 74 -20 106 -36 63 -106 93 -175 76z m113 -46 c47 -31 68 -132 40 -198 -40 -95 -175 -104 -223 -13 -24 45 -22 140 4 175 43 59 120 74 179 36z"/>
 <path d="M2967 2466 c-49 -18 -64 -32 -89 -80 -26 -51 -22 -152 8 -193 39 -52 71 -68 134 -68 71 0 105 21 138 85 73 144 -48 308 -191 256z m120 -41 c39 -26 56 -62 57 -123 0 -98 -46 -152 -132 -152 -95 0 -149 112 -106 219 30 74 113 100 181 56z"/>
 <path d="M3337 2466 c-49 -18 -62 -30 -86 -80 -52 -107 3 -243 105 -262 54 -10 104 4 141 41 34 34 43 65 19 65 -8 0 -18 -9 -21 -21 -9 -28 -63 -59 -103 -59 -79 0 -126 56 -126 151 -1 86 49 144 125 144 49 0 85 -21 104 -60 27 -58 22 -65 -46 -65 -44 0 -60 -3 -56 -12 2 -9 26 -13 73 -13 l69 0 3 88 c2 69 0 88 -10 85 -7 -3 -14 -17 -16 -32 l-3 -27 -20 25 c-11 14 -37 30 -57 36 -46 12 -48 12 -95 -4z"/>
 <path d="M697 2463 c-4 -3 -7 -73 -7 -155 l0 -148 -55 0 c-42 0 -55 -3 -55 -15 0 -13 22 -15 136 -15 104 0 135 3 132 13 -3 7 -27 13 -61 15 l-57 3 0 154 c0 123 -3 155 -13 155 -8 0 -17 -3 -20 -7z"/>
 <path d="M890 2300 l0 -170 121 0 c92 0 120 3 117 13 -3 8 -35 13 -101 15 l-97 3 0 59 0 60 96 0 c72 0 95 3 92 13 -3 8 -34 13 -96 15 l-92 3 0 64 0 65 100 0 c82 0 100 3 100 15 0 13 -20 15 -120 15 l-120 0 0 -170z"/>
 <path d="M1540 2300 c0 -144 2 -170 15 -170 12 0 15 14 15 70 l0 70 100 0 100 0 0 -70 c0 -63 2 -70 20 -70 19 0 20 7 20 171 0 157 -1 170 -17 167 -15 -3 -18 -16 -21 -86 l-3 -82 -99 0 -100 0 0 85 c0 69 -3 85 -15 85 -13 0 -15 -26 -15 -170z"/>
 <path d="M1890 2300 c0 -221 3 -222 132 -34 l93 136 3 -136 c2 -128 4 -136 22 -136 19 0 20 7 20 170 0 220 -3 221 -131 34 -51 -74 -97 -137 -101 -140 -4 -3 -8 58 -8 135 0 119 -2 141 -15 141 -13 0 -15 -26 -15 -170z"/>
 <path d="M2610 2300 c0 -144 2 -170 15 -170 13 0 15 24 15 155 l0 155 95 0 c78 0 95 3 95 15 0 12 -19 15 -110 15 l-110 0 0 -170z"/>
 <path d="M3710 2400 c0 -70 -1 -72 -58 -158 -79 -118 -76 -112 -54 -112 14 0 36 26 74 86 l55 86 54 -86 c34 -55 60 -86 71 -86 10 0 18 3 18 6 0 3 -29 48 -65 99 l-65 94 0 70 c0 56 -3 71 -15 71 -12 0 -15 -14 -15 -70z"/>
 <path d="M4070 2300 l0 -170 96 0 c92 0 97 1 125 29 21 22 29 39 29 66 0 27 -8 44 -29 66 -28 27 -34 29 -110 29 l-81 0 0 75 c0 60 -3 75 -15 75 -13 0 -15 -26 -15 -170z m201 -31 c16 -16 20 -28 15 -53 -9 -45 -30 -56 -113 -56 l-73 0 0 65 0 65 75 0 c63 0 78 -3 96 -21z"/>
 <path d="M4312 2462 c2 -4 32 -80 68 -170 86 -214 85 -214 168 -3 34 88 62 164 62 170 0 6 -6 11 -14 11 -7 0 -22 -24 -33 -52 l-20 -53 -79 0 -78 0 -21 53 c-14 36 -25 52 -38 52 -10 0 -17 -3 -15 -8z m186 -212 c-17 -44 -33 -78 -36 -75 -5 4 -62 146 -62 153 0 1 29 2 64 2 l64 0 -30 -80z"/>
 <path d="M4660 2300 l0 -172 111 4 c102 3 112 5 130 27 26 32 24 84 -5 117 -23 27 -23 28 -4 43 13 11 21 37 26 84 8 60 7 67 -9 67 -14 0 -19 -11 -24 -47 -12 -99 -10 -98 -102 -101 l-82 -3 -3 73 c-2 60 -6 73 -20 76 -17 3 -18 -10 -18 -168z m204 -31 c30 -24 34 -63 9 -91 -13 -14 -31 -18 -95 -18 l-78 0 0 65 0 65 69 0 c54 0 74 -4 95 -21z"/>
 <path d="M5080 2315 l0 -154 -57 -3 c-34 -2 -58 -8 -61 -15 -3 -10 28 -13 132 -13 114 0 136 2 136 15 0 12 -13 15 -60 15 l-60 0 0 155 c0 131 -2 155 -15 155 -13 0 -15 -24 -15 -155z"/>
 <path d="M5280 2300 c0 -219 2 -220 131 -32 l94 137 3 -137 c2 -130 4 -138 23 -138 19 0 19 6 17 168 -4 217 -6 218 -137 28 l-96 -140 -3 142 c-2 117 -5 142 -17 142 -13 0 -15 -27 -15 -170z"/>
 <path d="M5630 2300 l0 -170 115 0 c96 0 115 3 115 15 0 12 -18 15 -100 15 l-100 0 0 60 0 60 95 0 c78 0 95 3 95 15 0 12 -17 15 -95 15 l-95 0 0 65 0 65 106 0 c80 0 105 3 102 13 -3 8 -39 13 -121 15 l-117 3 0 -171z"/>
 <path d="M5927 2463 c-4 -3 -7 -80 -7 -170 l0 -163 104 0 c96 0 107 2 132 24 38 32 39 86 2 123 -26 26 -26 26 -6 42 14 12 22 35 28 81 8 71 7 75 -13 67 -8 -3 -17 -26 -20 -56 -10 -86 -16 -91 -107 -91 l-80 0 0 75 c0 56 -3 75 -13 75 -8 0 -17 -3 -20 -7z m186 -184 c29 -16 37 -28 37 -61 0 -46 -23 -58 -111 -58 l-79 0 0 65 0 65 66 0 c36 0 75 -5 87 -11z"/>
 <path d="M1255 1844 c-414 -56 -797 -216 -1120 -469 -104 -82 -137 -117 -129 -138 3 -10 12 -17 19 -17 7 0 69 29 137 65 349 182 727 294 1127 335 152 15 485 12 635 -5 250 -29 510 -92 740 -180 130 -49 147 -52 166 -31 24 30 7 60 -65 109 -241 166 -577 286 -929 332 -144 18 -441 18 -581 -1z"/>
 <path d="M2865 1731 c-3 -6 12 -56 34 -113 46 -123 74 -241 66 -279 -4 -17 -16 -31 -33 -38 -36 -15 -142 -18 -284 -8 -100 8 -118 7 -118 -5 0 -57 203 -128 365 -128 85 0 189 20 208 39 23 23 11 151 -23 252 -37 112 -84 192 -145 248 -45 42 -59 48 -70 32z"/>
 <path d="M4450 1468 c-65 -33 -95 -97 -95 -198 0 -140 69 -220 190 -220 98 0 158 67 153 170 l-3 55 -146 3 -146 3 7 42 c14 93 55 122 164 114 39 -3 82 -8 94 -12 21 -7 23 -5 20 16 -7 49 -160 66 -238 27z m200 -268 c0 -50 -40 -98 -85 -101 -92 -6 -142 26 -152 99 l-6 42 122 0 121 0 0 -40z"/>
 <path d="M5794 1471 c-75 -34 -109 -111 -102 -225 6 -83 24 -125 73 -162 63 -47 178 -46 236 3 48 41 69 95 69 183 0 80 -20 140 -56 172 -55 48 -150 61 -220 29z m175 -57 c35 -29 51 -76 51 -152 0 -109 -46 -162 -141 -162 -47 0 -63 5 -88 26 -72 60 -66 244 10 298 15 10 44 16 80 16 47 0 63 -5 88 -26z"/>
 <path d="M3917 1474 c-4 -4 -7 -96 -7 -205 0 -203 7 -238 37 -192 l14 20 61 -24 c81 -33 156 -29 196 11 l27 26 0 183 c0 175 -1 182 -20 182 -19 0 -20 -7 -22 -150 -3 -166 -6 -186 -29 -209 -24 -24 -114 -21 -168 6 l-46 22 -2 165 c-3 140 -5 166 -18 169 -9 1 -19 0 -23 -4z"/>
 <path d="M4859 1461 c-23 -19 -24 -25 -27 -185 l-3 -166 -24 0 c-64 0 -76 -35 -15 -45 40 -7 40 -7 40 -53 0 -55 12 -77 34 -69 12 5 16 20 16 61 l0 55 63 3 c54 3 62 5 62 23 0 18 -8 20 -62 23 l-63 3 0 149 c0 176 4 186 80 176 53 -7 64 -1 49 25 -14 27 -117 27 -150 0z"/>
 <path d="M5186 1471 c-10 -16 -136 -386 -136 -399 0 -8 9 -12 23 -10 19 3 29 24 77 171 30 92 58 167 61 167 3 0 25 -69 48 -152 24 -84 47 -161 52 -170 11 -21 42 -24 57 -5 5 6 29 80 51 162 23 83 44 157 48 165 3 8 31 -64 62 -160 44 -135 61 -176 75 -178 10 -2 22 0 26 5 4 4 -25 98 -64 208 -59 167 -74 200 -92 203 -11 2 -25 -3 -31 -10 -5 -7 -30 -84 -54 -170 -24 -87 -47 -158 -50 -158 -3 0 -25 71 -49 158 -24 86 -47 163 -53 170 -11 14 -43 16 -51 3z"/>
 <path d="M6185 1468 c-3 -7 -4 -101 -3 -207 2 -144 6 -195 15 -198 7 -3 17 7 23 21 l9 26 38 -26 c46 -31 118 -31 118 0 0 14 -9 19 -42 21 -24 2 -59 13 -78 25 l-35 21 -2 162 c-3 145 -5 162 -21 165 -9 2 -19 -3 -22 -10z"/>
 <path d="M6467 1474 c-4 -4 -7 -142 -7 -306 l0 -298 25 0 25 0 0 186 0 186 60 -54 c109 -96 151 -128 172 -128 34 0 16 23 -84 112 l-97 86 109 102 c61 56 110 106 110 111 0 5 -11 9 -25 9 -18 0 -55 -27 -125 -90 -54 -50 -103 -96 -107 -103 -4 -7 -10 33 -13 88 -4 79 -8 100 -20 103 -9 1 -19 0 -23 -4z"/>
 <path d="M2560 974 c-167 -28 -236 -53 -251 -91 -14 -38 -11 -103 5 -109 8 -3 50 7 93 22 68 25 93 28 193 29 102 0 119 -3 151 -22 40 -25 59 -59 59 -104 0 -67 -33 -90 -211 -148 -143 -47 -207 -83 -243 -138 -92 -141 -37 -302 129 -380 54 -25 70 -28 170 -28 182 1 285 47 285 129 0 19 -7 41 -15 50 -14 13 -22 12 -83 -11 -54 -21 -85 -26 -162 -26 -136 -1 -190 32 -190 117 0 63 43 96 197 145 208 67 268 113 293 225 31 138 -63 278 -215 321 -55 15 -166 26 -205 19z"/>
 <path d="M296 950 c-105 -41 -161 -130 -161 -255 1 -167 115 -275 308 -291 63 -6 173 5 246 23 l24 6 -5 -86 c-7 -105 -26 -143 -88 -175 -41 -21 -55 -23 -145 -19 -75 3 -118 11 -171 31 -39 14 -78 26 -87 26 -32 0 -38 -84 -7 -122 28 -36 162 -78 271 -85 149 -10 278 30 333 102 56 73 59 90 66 380 5 251 7 273 28 319 12 27 22 57 22 67 0 21 -82 79 -111 79 -19 0 -74 -58 -84 -89 -8 -25 -18 -26 -36 -5 -26 32 -104 78 -161 96 -78 24 -178 23 -242 -2z m263 -136 c96 -28 151 -109 151 -222 0 -49 -6 -51 -151 -59 -92 -5 -111 -3 -152 15 -61 27 -87 69 -87 140 0 62 20 106 58 126 36 20 115 20 181 0z"/>
 <path d="M1252 933 c-14 -13 -57 -143 -146 -438 -69 -231 -126 -430 -126 -442 0 -22 4 -23 79 -23 69 0 82 3 94 20 8 11 52 171 98 355 46 184 86 335 89 335 3 0 40 -152 84 -338 43 -185 83 -345 88 -354 7 -15 23 -18 94 -18 78 0 85 2 94 23 5 12 44 168 85 347 41 179 78 332 81 340 4 8 46 -138 95 -325 48 -187 93 -350 98 -362 10 -21 17 -23 91 -23 79 0 80 0 80 25 0 20 -113 395 -251 833 -17 53 -33 62 -110 62 -52 0 -73 -4 -86 -18 -12 -11 -45 -131 -98 -349 -44 -183 -83 -329 -86 -325 -4 4 -41 153 -83 332 -44 185 -84 333 -93 343 -12 13 -32 17 -83 17 -50 0 -73 -5 -88 -17z"/>
 <path d="M3910 441 c0 -284 0 -291 20 -291 11 0 20 7 20 15 0 17 25 20 35 5 3 -5 30 -17 60 -25 63 -19 124 -8 164 28 57 52 80 170 52 269 -14 49 -60 104 -99 119 -40 15 -116 10 -157 -11 -22 -11 -40 -20 -42 -20 -1 0 -4 44 -5 98 -3 92 -4 97 -25 100 l-23 3 0 -290z m256 64 c34 -22 54 -77 54 -149 0 -73 -16 -121 -50 -151 -31 -28 -122 -27 -170 1 l-35 20 -3 127 -3 128 53 25 c57 27 112 27 154 -1z"/>
 <path d="M5967 568 c-80 -22 -127 -101 -127 -215 0 -122 57 -198 160 -216 51 -9 109 7 142 40 36 36 58 128 40 167 l-12 26 -141 0 -141 0 7 37 c17 94 68 129 169 119 34 -3 73 -8 89 -12 21 -5 27 -3 27 10 0 38 -137 66 -213 44z m170 -290 c-12 -86 -106 -126 -184 -78 -35 21 -47 39 -58 88 l-7 32 128 0 127 0 -6 -42z"/>
 <path d="M4413 560 c-51 -21 -76 -105 -48 -163 30 -63 118 -91 218 -68 l37 9 0 -53 c0 -78 -21 -100 -97 -100 -32 0 -77 4 -100 8 -37 8 -43 6 -43 -8 0 -40 159 -65 228 -36 55 23 62 49 62 240 0 178 -7 205 -40 161 l-17 -22 -41 21 c-43 22 -119 27 -159 11z m168 -61 c40 -20 40 -20 37 -72 l-3 -52 -70 -3 c-94 -4 -114 2 -130 42 -41 97 51 144 166 85z"/>
 <path d="M4807 563 c-4 -3 -7 -98 -7 -210 0 -196 1 -203 20 -203 13 0 20 7 20 20 0 24 22 26 40 5 16 -19 85 -38 110 -30 11 4 20 14 20 24 0 15 -10 19 -51 23 -28 3 -62 14 -77 25 -27 20 -27 20 -30 173 -2 142 -9 180 -32 180 -3 0 -10 -3 -13 -7z"/>
 <path d="M5172 560 c-41 -17 -52 -66 -52 -225 l0 -145 -36 0 c-28 0 -35 -3 -32 -17 2 -12 15 -20 38 -23 35 -5 35 -5 38 -62 3 -50 6 -58 22 -58 18 0 20 7 20 60 l0 59 68 3 c52 2 67 6 67 18 0 12 -15 16 -67 18 l-68 3 1 137 c1 189 0 186 77 190 45 2 62 7 62 17 0 31 -84 46 -138 25z"/>
 <path d="M5401 557 c-8 -10 -11 -71 -9 -208 3 -178 4 -194 21 -197 12 -2 20 4 24 17 5 20 5 20 43 1 94 -48 183 -46 231 6 23 25 24 31 27 198 3 145 1 174 -12 185 -30 25 -36 2 -36 -150 0 -169 -11 -214 -55 -225 -36 -9 -102 3 -152 27 l-43 21 -2 165 c-3 165 -9 193 -37 160z"/>
 <path d="M6297 563 c-4 -3 -7 -98 -7 -210 0 -192 1 -203 19 -203 12 0 21 9 25 26 l7 27 23 -22 c46 -43 136 -51 136 -12 0 15 -10 19 -51 23 -28 3 -62 14 -77 25 -27 20 -27 20 -30 173 -2 142 -9 180 -32 180 -3 0 -10 -3 -13 -7z"/>
 </g>
<g id="layer102" fill="#ff9900" stroke="none">
 <path d="M1255 1844 c-414 -56 -797 -216 -1120 -469 -104 -82 -137 -117 -129 -138 3 -10 12 -17 19 -17 7 0 69 29 137 65 349 182 727 294 1127 335 152 15 485 12 635 -5 250 -29 510 -92 740 -180 130 -49 147 -52 166 -31 24 30 7 60 -65 109 -241 166 -577 286 -929 332 -144 18 -441 18 -581 -1z"/>
 <path d="M2865 1731 c-3 -6 12 -56 34 -113 46 -123 74 -241 66 -279 -4 -17 -16 -31 -33 -38 -36 -15 -142 -18 -284 -8 -100 8 -118 7 -118 -5 0 -57 203 -128 365 -128 85 0 189 20 208 39 23 23 11 151 -23 252 -37 112 -84 192 -145 248 -45 42 -59 48 -70 32z"/>
 </g>

</svg>
